<svg width="1721" height="345" viewBox="0 0 1721 345" fill="none" xmlns="http://www.w3.org/2000/svg">
<path d="M86.9585 267.943C86.9585 310.812 139.598 332.651 139.598 205.662C139.598 67.1778 86.9585 113.857 86.9585 144.594" stroke="white" stroke-width="14.2408"/>
<path d="M23.0405 239.392L111.399 239.392" stroke="white" stroke-width="14.2408" stroke-linecap="round"/>
<path d="M23.0405 175.473L111.399 175.473" stroke="white" stroke-width="14.2408" stroke-linecap="round"/>
<path d="M165.918 192.392H199.758" stroke="white" stroke-width="14.2408" stroke-linecap="round"/>
<path d="M165.918 224.352H199.758" stroke="white" stroke-width="14.2408" stroke-linecap="round"/>
<path d="M8 207.432L109.519 207.432" stroke="white" stroke-width="14.2408" stroke-linecap="round"/>
<path d="M318.727 302.659C308.136 302.659 298.134 301.23 288.72 298.372C279.474 295.682 271.236 291.564 264.008 286.016L270.816 271.138C278.381 276.518 285.862 280.384 293.259 282.738C300.823 285.091 308.977 286.268 317.718 286.268C341.926 286.268 354.03 273.828 354.03 248.948V227.262C350.499 234.995 344.952 241.131 337.387 245.67C329.99 250.041 321.501 252.226 311.919 252.226C300.655 252.226 290.905 249.621 282.668 244.409C274.43 239.198 268.042 232.053 263.503 222.975C259.133 213.729 256.947 203.054 256.947 190.951C256.947 178.847 259.133 168.256 263.503 159.178C268.042 149.932 274.43 142.788 282.668 137.744C290.905 132.701 300.655 130.179 311.919 130.179C321.501 130.179 329.99 132.365 337.387 136.736C344.952 141.107 350.499 147.074 354.03 154.639V132.449H373.951V246.174C373.951 265.002 369.244 279.124 359.83 288.538C350.584 297.952 336.883 302.659 318.727 302.659ZM315.701 235.583C327.469 235.583 336.799 231.549 343.691 223.48C350.584 215.41 354.03 204.567 354.03 190.951C354.03 177.334 350.584 166.575 343.691 158.674C336.799 150.605 327.469 146.57 315.701 146.57C304.102 146.57 294.856 150.605 287.963 158.674C281.071 166.575 277.624 177.334 277.624 190.951C277.624 204.567 281.071 215.41 287.963 223.48C294.856 231.549 304.102 235.583 315.701 235.583ZM440.758 257.269C432.353 257.269 424.788 255.672 418.063 252.478C411.507 249.116 406.296 244.577 402.429 238.862C398.563 233.146 396.629 226.758 396.629 219.697C396.629 210.787 398.899 203.727 403.438 198.516C408.145 193.304 415.794 189.606 426.385 187.42C437.144 185.067 451.769 183.89 470.261 183.89H478.33V176.073C478.33 165.65 476.145 158.17 471.774 153.631C467.571 148.924 460.763 146.57 451.349 146.57C443.952 146.57 436.807 147.663 429.915 149.848C423.023 151.865 415.962 155.228 408.733 159.935L401.673 145.057C408.061 140.518 415.794 136.904 424.872 134.214C434.118 131.524 442.943 130.179 451.349 130.179C467.151 130.179 478.835 134.046 486.399 141.779C494.132 149.512 497.999 161.532 497.999 177.838V255H478.835V233.818C475.64 241.047 470.681 246.763 463.957 250.965C457.401 255.168 449.668 257.269 440.758 257.269ZM444.036 241.888C454.123 241.888 462.36 238.441 468.748 231.549C475.136 224.488 478.33 215.579 478.33 204.82V197.255H470.513C456.896 197.255 446.137 197.927 438.236 199.272C430.503 200.449 425.04 202.634 421.846 205.828C418.82 208.854 417.307 213.057 417.307 218.436C417.307 225.329 419.66 230.96 424.367 235.331C429.243 239.702 435.799 241.888 444.036 241.888ZM574.977 257.269C560.52 257.269 549.677 253.487 542.448 245.922C535.22 238.189 531.605 227.094 531.605 212.637V148.335H507.65V132.449H531.605V94.8767H552.031V132.449H590.864V148.335H552.031V210.619C552.031 220.202 554.048 227.514 558.083 232.558C562.117 237.433 568.673 239.87 577.751 239.87C580.441 239.87 583.131 239.534 585.82 238.862C588.51 238.189 590.948 237.517 593.133 236.844L596.663 252.478C594.478 253.655 591.284 254.748 587.081 255.756C582.879 256.765 578.844 257.269 574.977 257.269ZM657.87 257.269C638.538 257.269 623.24 251.638 611.976 240.375C600.713 228.943 595.082 213.477 595.082 193.977C595.082 181.369 597.603 170.273 602.646 160.691C607.69 150.941 614.582 143.46 623.324 138.249C632.233 132.869 642.488 130.179 654.088 130.179C670.73 130.179 683.759 135.559 693.173 146.318C702.587 156.909 707.294 171.534 707.294 190.194V198.011H615.002C615.675 211.964 619.709 222.639 627.106 230.036C634.503 237.265 644.758 240.879 657.87 240.879C665.267 240.879 672.327 239.786 679.052 237.601C685.776 235.247 692.164 231.465 698.216 226.253L705.277 240.627C699.729 245.838 692.668 249.957 684.095 252.983C675.521 255.841 666.78 257.269 657.87 257.269ZM654.592 145.309C642.992 145.309 633.831 148.924 627.106 156.152C620.382 163.381 616.431 172.879 615.255 184.647H689.643C689.138 172.207 685.86 162.54 679.808 155.648C673.924 148.755 665.519 145.309 654.592 145.309ZM757.819 255L712.178 132.449H733.611L768.158 231.045L803.965 132.449H821.364L856.667 231.297L891.717 132.449H912.143L866.249 255H846.832L812.286 159.935L777.488 255H757.819ZM963.345 257.269C954.94 257.269 947.375 255.672 940.651 252.478C934.094 249.116 928.883 244.577 925.017 238.862C921.15 233.146 919.217 226.758 919.217 219.697C919.217 210.787 921.486 203.727 926.025 198.516C930.732 193.304 938.381 189.606 948.972 187.42C959.731 185.067 974.356 183.89 992.848 183.89H1000.92V176.073C1000.92 165.65 998.732 158.17 994.361 153.631C990.159 148.924 983.35 146.57 973.936 146.57C966.539 146.57 959.395 147.663 952.502 149.848C945.61 151.865 938.549 155.228 931.321 159.935L924.26 145.057C930.648 140.518 938.381 136.904 947.459 134.214C956.705 131.524 965.531 130.179 973.936 130.179C989.738 130.179 1001.42 134.046 1008.99 141.779C1016.72 149.512 1020.59 161.532 1020.59 177.838V255H1001.42V233.818C998.228 241.047 993.269 246.763 986.544 250.965C979.988 255.168 972.255 257.269 963.345 257.269ZM966.623 241.888C976.71 241.888 984.947 238.441 991.335 231.549C997.724 224.488 1000.92 215.579 1000.92 204.82V197.255H993.101C979.484 197.255 968.725 197.927 960.824 199.272C953.091 200.449 947.627 202.634 944.433 205.828C941.407 208.854 939.894 213.057 939.894 218.436C939.894 225.329 942.248 230.96 946.955 235.331C951.83 239.702 958.386 241.888 966.623 241.888ZM1061.28 300.389L1082.21 252.983L1030.52 132.449H1052.71L1093.31 231.801L1134.16 132.449H1155.59L1082.72 300.389H1061.28ZM1197.87 255L1149.21 131.692H1181.48L1213 218.436L1244.77 131.692H1266.96L1298.74 218.941L1330.26 131.692H1360.77L1312.35 255H1284.87L1254.86 175.569L1225.36 255H1197.87ZM1427.03 257.522C1413.08 257.522 1401.06 254.916 1390.97 249.705C1380.89 244.493 1373.07 237.096 1367.52 227.514C1362.14 217.932 1359.45 206.585 1359.45 193.472C1359.45 180.696 1362.06 169.517 1367.27 159.935C1372.65 150.352 1379.96 142.872 1389.21 137.492C1398.62 131.945 1409.3 129.171 1421.23 129.171C1438.71 129.171 1452.5 134.718 1462.59 145.814C1472.84 156.909 1477.97 172.038 1477.97 191.203V200.533H1389.71C1392.06 222.555 1404.67 233.566 1427.54 233.566C1434.43 233.566 1441.32 232.558 1448.21 230.54C1455.11 228.355 1461.41 224.993 1467.13 220.454L1475.95 241.635C1470.07 246.511 1462.67 250.377 1453.76 253.235C1444.85 256.093 1435.94 257.522 1427.03 257.522ZM1422.49 150.605C1413.25 150.605 1405.77 153.462 1400.05 159.178C1394.33 164.894 1390.89 172.627 1389.71 182.377H1451.74C1451.07 172.123 1448.21 164.305 1443.17 158.926C1438.29 153.378 1431.4 150.605 1422.49 150.605ZM1563.95 257.522C1554.88 257.522 1546.72 255.504 1539.49 251.47C1532.43 247.435 1527.14 241.972 1523.61 235.079V255H1492.84V77.2253H1524.36V149.848C1528.06 143.628 1533.36 138.669 1540.25 134.971C1547.31 131.104 1555.21 129.171 1563.95 129.171C1574.88 129.171 1584.38 131.777 1592.45 136.988C1600.52 142.199 1606.82 149.596 1611.36 159.178C1615.9 168.592 1618.17 179.94 1618.17 193.22C1618.17 206.333 1615.9 217.764 1611.36 227.514C1606.82 237.096 1600.43 244.493 1592.2 249.705C1584.13 254.916 1574.71 257.522 1563.95 257.522ZM1555.13 233.566C1564.54 233.566 1572.11 230.204 1577.82 223.48C1583.54 216.587 1586.4 206.501 1586.4 193.22C1586.4 179.771 1583.54 169.769 1577.82 163.213C1572.11 156.488 1564.54 153.126 1555.13 153.126C1545.71 153.126 1538.15 156.488 1532.43 163.213C1526.72 169.769 1523.86 179.771 1523.86 193.22C1523.86 206.501 1526.72 216.587 1532.43 223.48C1538.15 230.204 1545.71 233.566 1555.13 233.566Z" fill="white"/>
</svg>
