<?xml version="1.0" standalone="no"?>
<!DOCTYPE svg PUBLIC "-//W3C//DTD SVG 20010904//EN"
 "http://www.w3.org/TR/2001/REC-SVG-20010904/DTD/svg10.dtd">
<svg version="1.0" xmlns="http://www.w3.org/2000/svg"
 width="450.000000pt" height="450.000000pt" viewBox="0 0 450.000000 450.000000"
 preserveAspectRatio="xMidYMid meet">
<metadata>
Created by potrace 1.11, written by Peter Selinger 2001-2013
</metadata>
<g transform="translate(0.000000,450.000000) scale(0.100000,-0.100000)"
fill="#000000" stroke="none">
<path d="M1950 4484 c-315 -43 -664 -171 -925 -342 -450 -293 -797 -758 -938
-1260 -106 -374 -117 -781 -30 -1147 57 -240 172 -512 301 -710 293 -450 758
-797 1260 -938 374 -106 781 -117 1147 -30 240 57 512 172 710 301 450 293
797 758 938 1260 106 374 117 781 30 1147 -57 240 -172 512 -301 710 -325 499
-831 849 -1417 979 -210 46 -555 60 -775 30z m-678 -1864 c72 -22 147 -71 183
-120 l25 -34 0 77 0 77 196 0 195 0 -4 -547 c-3 -469 -6 -556 -20 -602 -56
-188 -179 -305 -372 -356 -137 -37 -415 -29 -577 16 -67 19 -194 74 -202 88
-4 6 86 246 95 256 4 3 35 -8 70 -25 89 -41 224 -70 335 -70 207 0 281 63 292
251 2 49 1 89 -4 89 -5 0 -18 -14 -29 -30 -51 -78 -193 -140 -319 -140 -141 0
-250 45 -341 141 -193 202 -194 603 -3 805 61 64 115 99 196 125 79 25 202 25
284 -1z m1183 -307 c64 -170 121 -315 125 -323 8 -13 9 -13 14 0 3 8 57 152
121 319 63 168 115 306 115 308 0 2 55 3 123 3 l122 0 109 -292 c141 -377 136
-365 146 -348 4 8 61 156 125 328 l118 312 184 0 c110 0 183 -4 181 -9 -1 -5
-104 -253 -228 -550 l-225 -541 -164 2 -165 3 -102 254 c-56 140 -106 261
-111 269 -6 10 -30 -42 -82 -179 -41 -107 -87 -229 -103 -271 l-30 -78 -163 0
c-121 0 -164 3 -168 13 -3 6 -103 244 -222 527 -119 283 -221 525 -226 538
l-9 22 199 0 198 0 118 -307z"/>
<path d="M1215 2351 c-115 -29 -169 -113 -168 -262 0 -78 24 -151 61 -192 32
-36 92 -59 151 -59 141 0 221 94 221 257 0 114 -42 199 -116 238 -37 19 -110
28 -149 18z"/>
</g>
</svg>
